<svg viewBox="287 98 884 204" xmlns="http://www.w3.org/2000/svg">
  <rect width="1440" height="400" fill="#000000"/>
  <g transform="translate(0.000000,400.000000) scale(0.100000,-0.100000)" fill="#ffffff" stroke="none">
    <path d="M3554 3006 c-299 -57 -516 -248 -617 -546 -52 -152 -62 -228 -62 -460 0 -281 23 -398 117 -585 145 -287 392 -435 728 -435 208 0 375 53 520 165 219 170 340 471 340 850 0 524 -229 895 -615 996 -102 27 -309 34 -411 15z m271 -420 c125 -58 191 -190 216 -433 13 -134 7 -306 -17 -420 -47 -228 -147 -343 -299 -343 -221 0 -338 240 -322 663 8 221 47 367 127 467 68 85 194 114 295 66z"/>
    <path d="M4903 2817 l-253 -171 0 -224 c0 -176 3 -222 13 -216 6 4 119 79 249 166 l238 158 2 -757 3 -758 263 -3 262 -2 0 990 0 990 -262 0 -263 -1 -252 -172z"/>
    <path d="M5950 2000 l0 -990 230 0 230 0 0 607 c0 333 3 604 6 600 3 -3 111 -275 239 -604 l234 -598 148 -3 148 -2 235 602 235 602 5 -599 5 -600 233 -3 232 -2 -2 987 -3 988 -304 0 -305 0 -237 -623 c-130 -343 -239 -626 -242 -629 -3 -2 -15 22 -27 54 -12 32 -119 315 -238 628 l-217 570 -303 3 -302 2 0 -990z"/>
    <path d="M8172 2978 c3 -7 142 -453 309 -991 l304 -977 340 2 340 3 306 980 c168 539 303 983 299 988 -3 4 -136 6 -296 5 l-289 -3 -179 -732 c-99 -403 -182 -730 -184 -728 -5 5 -48 178 -247 988 l-117 477 -295 0 c-232 0 -294 -3 -291 -12z"/>
    <path d="M10127 2983 c-4 -3 -7 -449 -7 -990 l0 -983 265 0 265 0 0 284 0 284 248 5 c215 4 256 7 320 26 246 72 408 234 467 466 37 144 26 350 -26 490 -31 83 -113 199 -181 256 -114 94 -232 141 -407 158 -112 12 -933 15 -944 4z m895 -436 c67 -33 123 -94 140 -151 20 -69 14 -194 -11 -251 -58 -132 -156 -174 -398 -175 l-103 0 0 306 0 306 158 -4 c148 -3 160 -5 214 -31z"/>
  </g>
</svg>
